<?xml version="1.0" encoding="UTF-8"?>
<svg id="logo" xmlns="http://www.w3.org/2000/svg" viewBox="0 0 481.31 475.97">
  <defs>
    <style>
      .cls-1, .cls-2 {
        fill: #2cc0e0;
      }

      .cls-2, .cls-3, .cls-4, .cls-5 {
        fill-rule: evenodd;
      }

      .cls-3 {
        fill: #069bc7;
      }

      .cls-4 {
        fill: #01b3d6;
      }

      .cls-5 {
        fill: #1d3455;
      }
    </style>
  </defs>
  <path class="cls-5" d="M481.31,232.55c0,128.43-106.18,232.55-237.16,232.55-44.97,0-87.01-12.27-122.84-33.59l39.89-48.97c25.36,13.57,53.74,20.69,82.95,20.69,46.33,0,89.91-17.72,122.71-49.87,32.89-32.25,51-75.16,51-120.81s-18.11-88.56-51-120.81c-32.8-32.16-76.38-49.87-122.71-49.87s-89.92,17.71-122.71,49.87c-32.89,32.25-51,75.15-51,120.81,0,28.43,7.12,56.12,20.72,80.89l-48.73,41.44c-22.47-35.54-35.44-77.45-35.44-122.33C6.99,104.11,113.17,0,244.15,0s237.16,104.11,237.16,232.55Z"/>
  <path class="cls-5" d="M244.14,79.38c-86.26,0-156.2,68.57-156.2,153.17,0,30.92,9.36,59.7,25.43,83.78l-.91,1.99L6.6,408.32c-8.36,7.11-8.86,19.85-1.07,27.58l34.84,34.62c7.86,7.81,20.75,7.14,27.75-1.46l89.02-109.29h0c24.86,16.38,54.79,25.94,86.99,25.94,86.27,0,156.2-68.57,156.2-153.17s-69.93-153.17-156.2-153.17ZM244.14,367.78c-22.42,0-43.6-5.25-62.32-14.56-7.01-4.48-13.59-9.55-19.64-15.16-4.13-1.98-8.14-4.17-12.02-6.55-27.02-24.69-43.93-59.9-43.93-98.97,0-74.69,61.75-135.24,137.91-135.24,26.72,0,51.66,7.45,72.78,20.34.23.22.47.43.69.65.53.25,1.04.51,1.56.76,37.85,24.11,62.88,65.94,62.88,113.49,0,74.68-61.75,135.23-137.92,135.23Z"/>
  <path class="cls-2" d="M118.95,239.73c0,38.74,16.62,73.68,43.23,98.33-4.13-1.98-8.14-4.17-12.02-6.55-27.02-24.69-43.93-59.9-43.93-98.97,0-74.69,61.75-135.24,137.91-135.24,26.72,0,51.66,7.45,72.78,20.34.23.22.47.43.69.65-18.33-8.83-38.95-13.8-60.75-13.8-76.17,0-137.92,60.54-137.92,135.23Z"/>
  <path class="cls-4" d="M360.85,216.62c0,74.68-61.75,135.23-137.92,135.23-21.8,0-42.42-4.97-60.75-13.8-26.62-24.65-43.23-59.59-43.23-98.33,0-74.69,61.75-135.23,137.92-135.23,21.8,0,42.42,4.97,60.75,13.8,26.62,24.65,43.23,59.59,43.23,98.33Z"/>
  <ellipse class="cls-1" cx="222.9" cy="150.07" rx="38.59" ry="23.5" transform="translate(-35.71 77.08) rotate(-18.19)"/>
  <path class="cls-3" d="M319.18,119.06c-.52-.26-1.04-.51-1.56-.76,26.62,24.65,43.23,59.59,43.23,98.33,0,74.68-61.75,135.23-137.92,135.23-21.8,0-42.42-4.97-60.75-13.8,0,0,0,0,0,0h-.01s-11.77-6.33-11.77-6.33c9.32,8.47,19.85,15.69,31.29,21.39.04.03.09.06.13.09.25.12.5.24.75.36.12.06.24.13.37.19h0c18.44,8.96,39.21,14.01,61.19,14.01,76.17,0,137.92-60.55,137.92-135.23,0-47.55-25.03-89.38-62.88-113.49Z"/>
</svg>